#!OML:ASF E:\Style4\Style4.ASF
:FULLY-SPECIFIED
:DEGREES
1143
root 0.476547 16.8783 -0.760487 6.39423 -2.70205 4.36937
lowerback 7.14551 3.04983 3.81753
upperback -1.36153 4.36547 -1.0059
thorax -5.05987 2.03033 -3.67294
lowerneck 2.39949 1.15398 -4.7087
upperneck 8.85779 1.22386 4.7683
head 2.34974 0.580428 2.37617
rclavicle -9.93923e-017 -1.19271e-014
rhumerus -89.3639 52.9282 -125.685
rradius 84.5099
rwrist -0.272233
rhand -8.56032 34.4138
rfingers 7.12502
rthumb 17.3696 5.16995
lclavicle -9.93923e-017 -1.19271e-014
lhumerus -28.6561 25.7808 20.5945
lradius 112.752
lwrist -15.4618
lhand -11.6322 34.7656
lfingers 7.12502
lthumb 14.4115 64.2452
rfemur -29.9358 4.06198 11.6238
rtibia 53.3799
rfoot -27.6823 -14.4836
rtoes -16.5194
lfemur -27.4905 -0.887196 -25.5687
ltibia 50.5481
lfoot -28.3717 9.34117
ltoes -16.0612
1144
root 0.476478 16.8786 -0.761412 6.38952 -2.69048 4.36588
lowerback 7.15756 3.04666 3.82885
upperback -1.36271 4.36195 -1.02226
thorax -5.06618 2.02781 -3.69682
lowerneck 2.43235 1.15656 -4.74133
upperneck 8.82886 1.22493 4.79382
head 2.33419 0.580215 2.38977
rclavicle 7.02704e-014 1.43125e-014
rhumerus -89.3899 52.9558 -125.748
rradius 84.4728
rwrist -0.25902
rhand -8.65749 34.4424
rfingers 7.12502
rthumb 17.2761 5.19027
lclavicle 7.02704e-014 1.43125e-014
lhumerus -28.6275 25.859 20.5988
lradius 112.699
lwrist -15.4825
lhand -11.5186 34.6069
lfingers 7.12502
lthumb 14.5209 64.0788
rfemur -29.9308 4.05038 11.6288
rtibia 53.3865
rfoot -27.7018 -14.4717
rtoes -16.5367
lfemur -27.4928 -0.879755 -25.5645
ltibia 50.5563
lfoot -28.4153 9.36185
ltoes -16.2286
1145
root 0.476068 16.8778 -0.763033 6.39845 -2.66747 4.36737
lowerback 7.15193 3.03614 3.80437
upperback -1.36275 4.34549 -1.02181
thorax -5.06625 2.02041 -3.68065
lowerneck 2.42611 1.16093 -4.76998
upperneck 8.81282 1.23177 4.78767
head 2.32963 0.582631 2.39281
rclavicle -1.27222e-014 -1.35174e-014
rhumerus -89.4289 52.9803 -125.795
rradius 84.4739
rwrist -0.205266
rhand -8.7963 34.3993
rfingers 7.12502
rthumb 17.1425 5.13554
lclavicle -1.27222e-014 -1.35174e-014
lhumerus -28.6451 25.8849 20.598
lradius 112.698
lwrist -15.5049
lhand -11.5507 34.4917
lfingers 7.12502
lthumb 14.4899 63.9658
rfemur -29.9457 4.01878 11.6311
rtibia 53.4017
rfoot -27.7407 -14.4364
rtoes -16.3227
lfemur -27.5156 -0.873159 -25.5657
ltibia 50.5699
lfoot -28.4565 9.4504
ltoes -16.7557
1146
root 0.475085 16.8763 -0.766011 6.40596 -2.63389 4.37311
lowerback 7.16523 3.02948 3.78574
upperback -1.36663 4.33519 -1.0281
thorax -5.0796 2.01531 -3.67688
lowerneck 2.45608 1.15461 -4.74935
upperneck 8.75387 1.22772 4.7242
head 2.30487 0.579577 2.36624
rclavicle -4.28381e-014 3.97569e-015
rhumerus -89.3971 52.9615 -125.778
rradius 84.4688
rwrist -0.231418
rhand -8.73829 34.4014
rfingers 7.12502
rthumb 17.1983 5.14249
lclavicle -4.28381e-014 3.97569e-015
lhumerus -28.6373 25.8733 20.6156
lradius 112.691
lwrist -15.5374
lhand -11.6388 34.5373
lfingers 7.12502
lthumb 14.405 64.0174
rfemur -29.965 4.02312 11.6305
rtibia 53.4215
rfoot -27.7587 -14.4406
rtoes -16.1329
lfemur -27.547 -0.904426 -25.5682
ltibia 50.5853
lfoot -28.4062 9.50262
ltoes -17.0604
1147
root 0.474854 16.8756 -0.766472 6.39503 -2.61207 4.39246
lowerback 7.15695 3.01566 3.76204
upperback -1.34962 4.31312 -1.0447
thorax -5.05938 2.00574 -3.6774
lowerneck 2.47726 1.15822 -4.71738
upperneck 8.69893 1.23626 4.67426
head 2.28236 0.583526 2.34248
rclavicle 4.96962e-015 -9.54166e-015
rhumerus -89.3644 52.9943 -125.796
rradius 84.4548
rwrist -0.261957
rhand -8.61428 34.4206
rfingers 7.12502
rthumb 17.3177 5.17212
lclavicle 4.96962e-015 -9.54166e-015
lhumerus -28.6421 25.8966 20.6237
lradius 112.673
lwrist -15.6242
lhand -11.7242 34.5534
lfingers 7.12502
lthumb 14.3228 64.0394
rfemur -29.9609 4.0146 11.6066
rtibia 53.443
rfoot -27.7491 -14.4965
rtoes -16.2897
lfemur -27.5408 -0.92177 -25.5882
ltibia 50.5895
lfoot -28.3438 9.42416
ltoes -16.7513
1148
root 0.475113 16.8757 -0.767089 6.39442 -2.59873 4.44498
lowerback 7.15091 3.01135 3.7024
upperback -1.3379 4.29944 -1.08672
thorax -5.04584 2.00077 -3.68558
lowerneck 2.3922 1.15435 -4.64981
upperneck 8.75783 1.23454 4.65496
head 2.31721 0.585118 2.32584
rclavicle -7.25564e-015 5.56597e-015
rhumerus -89.2843 52.9874 -125.784
rradius 84.4432
rwrist -0.250481
rhand -8.57143 34.4117
rfingers 7.12502
rthumb 17.3589 5.16685
lclavicle -7.25564e-015 5.56597e-015
lhumerus -28.5866 25.9101 20.6104
lradius 112.63
lwrist -15.626
lhand -11.8703 34.6241
lfingers 7.12502
lthumb 14.182 64.1199
rfemur -29.9758 3.98413 11.5471
rtibia 53.4652
rfoot -27.7431 -14.4851
rtoes -16.2443
lfemur -27.544 -0.948567 -25.642
ltibia 50.5863
lfoot -28.3536 9.35345
ltoes -16.3699
1149
root 0.474614 16.8745 -0.768456 6.42129 -2.58369 4.47615
lowerback 7.12882 3.03457 3.68373
upperback -1.34266 4.32522 -1.1446
thorax -5.03295 2.01367 -3.73671
lowerneck 2.39553 1.12392 -4.60643
upperneck 8.72588 1.19232 4.68876
head 2.30819 0.566313 2.32833
rclavicle 3.76697e-014 -1.51076e-014
rhumerus -89.1874 52.8706 -125.724
rradius 84.4454
rwrist -0.229142
rhand -8.59787 34.3866
rfingers 7.12502
rthumb 17.3335 5.1395
lclavicle 3.76697e-014 -1.51076e-014
lhumerus -28.4291 25.8907 20.6559
lradius 112.594
lwrist -15.6182
lhand -11.9218 34.831
lfingers 7.12502
lthumb 14.1323 64.3303
rfemur -30.0259 3.97439 11.5176
rtibia 53.4885
rfoot -27.6962 -14.5573
rtoes -16.4096
lfemur -27.5839 -0.954531 -25.6755
ltibia 50.5892
lfoot -28.365 9.53263
ltoes -17.1409
1150
root 0.474591 16.874 -0.768121 6.4004 -2.58333 4.49684
lowerback 7.13598 3.05481 3.68094
upperback -1.32991 4.34991 -1.18754
thorax -5.01834 2.02604 -3.78227
lowerneck 2.43559 1.09193 -4.65246
upperneck 8.68312 1.14452 4.7556
head 2.28941 0.542298 2.35752
rclavicle -2.43511e-014 5.56597e-015
rhumerus -89.1076 52.7863 -125.685
rradius 84.4053
rwrist -0.190449
rhand -8.69343 34.3542
rfingers 7.12502
rthumb 17.2415 5.09903
lclavicle -2.43511e-014 5.56597e-015
lhumerus -28.3467 25.8665 20.6747
lradius 112.597
lwrist -15.6032
lhand -11.9154 35.0115
lfingers 7.12502
lthumb 14.1385 64.5104
rfemur -30.0093 3.95903 11.4981
rtibia 53.5092
rfoot -27.7052 -14.5699
rtoes -16.3967
lfemur -27.554 -0.942126 -25.7014
ltibia 50.5919
lfoot -28.3845 9.54093
ltoes -17.2108
1151
root 0.474761 16.8732 -0.769013 6.41279 -2.56193 4.49088
lowerback 7.12467 3.04794 3.67105
upperback -1.33537 4.33926 -1.19333
thorax -5.01886 2.0209 -3.78118
lowerneck 2.40065 1.08505 -4.74273
upperneck 8.76276 1.13093 4.81347
head 2.32299 0.534317 2.39519
rclavicle 7.65321e-015 -2.8625e-014
rhumerus -89.1491 52.787 -125.711
rradius 84.4074
rwrist -0.238122
rhand -8.71632 34.2779
rfingers 7.12502
rthumb 17.2195 5.02087
lclavicle 7.65321e-015 -2.8625e-014
lhumerus -28.3823 25.8427 20.6301
lradius 112.611
lwrist -15.5997
lhand -11.8297 35.0063
lfingers 7.12502
lthumb 14.2211 64.4994
rfemur -30.0343 3.93432 11.5042
rtibia 53.5356
rfoot -27.733 -14.5505
rtoes -16.2651
lfemur -27.5828 -0.945934 -25.6938
ltibia 50.6056
lfoot -28.3503 9.47
ltoes -17.0272
1152
root 0.473978 16.8715 -0.771265 6.43086 -2.57008 4.46769
lowerback 7.12819 3.05279 3.67292
upperback -1.3456 4.3452 -1.21442
thorax -5.0293 2.02305 -3.80549
lowerneck 2.35938 1.06935 -4.72466
upperneck 8.82608 1.10944 4.82336
head 2.35261 0.524806 2.39668
rclavicle 5.1684e-015 1.59028e-014
rhumerus -89.1265 52.7537 -125.733
rradius 84.3956
rwrist -0.234958
rhand -8.63816 34.2175
rfingers 7.12502
rthumb 17.2947 4.96698
lclavicle 5.1684e-015 1.59028e-014
lhumerus -28.3474 25.8165 20.5461
lradius 112.57
lwrist -15.5275
lhand -11.724 34.9356
lfingers 7.12502
lthumb 14.323 64.4215
rfemur -30.07 3.95654 11.5275
rtibia 53.5564
rfoot -27.7824 -14.4781
rtoes -15.9706
lfemur -27.6303 -0.930351 -25.6638
ltibia 50.6269
lfoot -28.4292 9.50042
ltoes -17.1894
1153
root 0.473075 16.8705 -0.772301 6.4244 -2.56379 4.47031
lowerback 7.13969 3.05137 3.64959
upperback -1.34476 4.34068 -1.23287
thorax -5.03558 2.02107 -3.81202
lowerneck 2.34994 1.06676 -4.71455
upperneck 8.82466 1.10531 4.8392
head 2.35405 0.523542 2.40022
rclavicle 8.59744e-014 -2.3059e-014
rhumerus -89.0846 52.7375 -125.734
rradius 84.3707
rwrist -0.173909
rhand -8.52164 34.1781
rfingers 7.12502
rthumb 17.4069 4.93751
lclavicle 8.59744e-014 -2.3059e-014
lhumerus -28.3063 25.7635 20.5425
lradius 112.518
lwrist -15.5037
lhand -11.6796 34.9485
lfingers 7.12502
lthumb 14.3658 64.4315
rfemur -30.0798 3.95604 11.5285
rtibia 53.5771
rfoot -27.7543 -14.5203
rtoes -15.9532
lfemur -27.6395 -0.930474 -25.6624
ltibia 50.6454
lfoot -28.4947 9.52625
ltoes -17.3112
1154
root 0.472341 16.8691 -0.772787 6.41839 -2.55021 4.41831
lowerback 7.12785 3.0364 3.67715
upperback -1.32992 4.32302 -1.22212
thorax -5.01374 2.01253 -3.81293
lowerneck 2.3769 1.07077 -4.72579
upperneck 8.73492 1.11433 4.79919
head 2.31886 0.526502 2.387
rclavicle 2.08724e-014 -5.56597e-015
rhumerus -89.0806 52.7765 -125.726
rradius 84.3692
rwrist -0.170618
rhand -8.44695 34.2108
rfingers 7.12502
rthumb 17.4787 4.97657
lclavicle 2.08724e-014 -5.56597e-015
lhumerus -28.3128 25.7448 20.5133
lradius 112.466
lwrist -15.4863
lhand -11.6858 34.8246
lfingers 7.12502
lthumb 14.3597 64.308
rfemur -30.0764 3.96237 11.5916
rtibia 53.5895
rfoot -27.7739 -14.4897
rtoes -16.0379
lfemur -27.6482 -0.924829 -25.605
ltibia 50.6669
lfoot -28.398 9.48537
ltoes -17.0451
